solid vaso_orbitale
  facet normal 0 0 -1
    outer loop
      vertex -30 -30 0
      vertex 30 30 0
      vertex 30 -30 0
    endloop
  endfacet
  facet normal 0 0 -1
    outer loop
      vertex -30 -30 0
      vertex -30 30 0
      vertex 30 30 0
    endloop
  endfacet
  facet normal 0 0 1
    outer loop
      vertex -20 -20 80
      vertex 20 -20 80
      vertex 20 20 80
    endloop
  endfacet
  facet normal 0 0 1
    outer loop
      vertex -20 -20 80
      vertex 20 20 80
      vertex -20 20 80
    endloop
  endfacet
  facet normal 0 -0.97 0.24
    outer loop
      vertex -30 -30 0
      vertex 30 -30 0
      vertex 20 -20 80
    endloop
  endfacet
  facet normal 0 -0.97 0.24
    outer loop
      vertex -30 -30 0
      vertex 20 -20 80
      vertex -20 -20 80
    endloop
  endfacet
  facet normal 0.97 0 0.24
    outer loop
      vertex 30 -30 0
      vertex 30 30 0
      vertex 20 20 80
    endloop
  endfacet
  facet normal 0.97 0 0.24
    outer loop
      vertex 30 -30 0
      vertex 20 20 80
      vertex 20 -20 80
    endloop
  endfacet
  facet normal 0 0.97 0.24
    outer loop
      vertex 30 30 0
      vertex -30 30 0
      vertex -20 20 80
    endloop
  endfacet
  facet normal 0 0.97 0.24
    outer loop
      vertex 30 30 0
      vertex -20 20 80
      vertex 20 20 80
    endloop
  endfacet
  facet normal -0.97 0 0.24
    outer loop
      vertex -30 30 0
      vertex -30 -30 0
      vertex -20 -20 80
    endloop
  endfacet
  facet normal -0.97 0 0.24
    outer loop
      vertex -30 30 0
      vertex -20 -20 80
      vertex -20 20 80
    endloop
  endfacet
endsolid vaso_orbitale
